<?xml version='1.0' encoding='utf-8'?>
<svg xmlns="http://www.w3.org/2000/svg" width="100mm" height="35.67mm" viewBox="0 0 100 35.67">
<title>Picasso-style dog plotter line art</title>
<g fill="none" stroke="black" stroke-width="0.8" stroke-linecap="round" stroke-linejoin="round">
  <path d="M 34.21,31.58 L 36.84,21.05 L 52.92,20.76 L 71.35,18.71 L 84.50,20.18 L 85.67,21.64 L 86.84,30.41 L 88.60,32.16 L 90.35,9.06 L 94.74,6.73 L 96.49,4.97 L 96.78,3.22 L 94.74,3.22 L 86.55,7.02 L 73.39,10.53 L 58.77,12.28 L 46.20,12.28 L 29.53,8.48" id="path0" />
  <path d="M 28.36,7.02 L 27.49,3.80 L 25.44,2.92 L 17.25,9.94 L 3.80,18.71 L 4.09,19.88 L 9.06,20.18 L 21.35,18.42" id="path1" />
  <path d="M 21.35,18.42 L 23.39,28.36 L 25.15,30.12 L 26.90,29.53 L 28.95,23.10 L 29.24,8.77" id="path2" />
  <path d="M 21.35,18.42 L 23.68,9.94 L 25.44,8.19 L 28.07,7.31" id="path3" />
</g>
</svg>