<svg xmlns="http://www.w3.org/2000/svg" viewBox="0 0 800 859" width="800" height="859">
  <rect width="100%" height="100%" fill="white"/>
  <path d="M 268.0 64.0
L 268.0 65.0
L 266.0 66.0
L 268.0 72.0
L 269.0 72.0
L 269.0 69.0
L 270.0 68.0
L 270.0 64.0
L 269.0 64.0
L 282.0 142.0
L 281.0 145.0
L 276.0 149.0
L 273.0 150.0
L 273.0 151.0
L 276.0 153.0
L 275.0 156.0
L 280.0 156.0
L 280.0 154.0
L 283.0 153.0
L 288.0 147.0
L 288.0 144.0
L 285.0 142.0
L 283.0 142.0
L 262.0 170.0
L 262.0 175.0
L 259.0 174.0
L 257.0 176.0
L 255.0 176.0
L 254.0 175.0
L 255.0 172.0
L 258.0 174.0
L 261.0 170.0
L 227.0 181.0
L 228.0 180.0
L 230.0 181.0
L 230.0 185.0
L 229.0 186.0
L 223.0 184.0
L 224.0 182.0
L 227.0 182.0
L 228.0 189.0
L 230.0 188.0
L 231.0 190.0
L 241.0 199.0
L 246.0 208.0
L 246.0 212.0
L 248.0 215.0
L 248.0 222.0
L 249.0 223.0
L 248.0 230.0
L 250.0 231.0
L 250.0 241.0
L 252.0 245.0
L 252.0 247.0
L 250.0 248.0
L 252.0 252.0
L 251.0 253.0
L 251.0 261.0
L 250.0 262.0
L 250.0 270.0
L 249.0 271.0
L 249.0 274.0
L 250.0 275.0
L 250.0 283.0
L 249.0 284.0
L 247.0 284.0
L 243.0 280.0
L 242.0 276.0
L 238.0 271.0
L 239.0 265.0
L 238.0 265.0
L 236.0 268.0
L 233.0 268.0
L 229.0 262.0
L 229.0 256.0
L 228.0 254.0
L 225.0 253.0
L 222.0 247.0
L 223.0 243.0
L 227.0 241.0
L 225.0 234.0
L 223.0 234.0
L 221.0 230.0
L 217.0 233.0
L 215.0 233.0
L 213.0 230.0
L 211.0 223.0
L 211.0 218.0
L 210.0 217.0
L 210.0 213.0
L 211.0 212.0
L 211.0 200.0
L 215.0 194.0
L 219.0 192.0
L 224.0 192.0
L 227.0 190.0
L 232.0 215.0
L 230.0 217.0
L 229.0 221.0
L 232.0 221.0
L 237.0 224.0
L 239.0 224.0
L 240.0 222.0
L 239.0 217.0
L 237.0 215.0
L 233.0 215.0
L 250.0 225.0
L 251.0 224.0
L 253.0 225.0
L 253.0 231.0
L 252.0 232.0
L 250.0 231.0
L 250.0 226.0
L 258.0 263.0
L 259.0 262.0
L 261.0 263.0
L 261.0 269.0
L 260.0 270.0
L 258.0 269.0
L 258.0 264.0
L 269.0 299.0
L 268.0 302.0
L 271.0 303.0
L 275.0 303.0
L 276.0 302.0
L 275.0 300.0
L 270.0 299.0
L 278.0 318.0
L 276.0 322.0
L 276.0 325.0
L 274.0 328.0
L 274.0 334.0
L 276.0 337.0
L 277.0 342.0
L 280.0 345.0
L 280.0 350.0
L 286.0 355.0
L 286.0 360.0
L 287.0 361.0
L 290.0 361.0
L 290.0 356.0
L 285.0 351.0
L 285.0 349.0
L 282.0 345.0
L 282.0 335.0
L 280.0 334.0
L 280.0 329.0
L 279.0 328.0
L 279.0 326.0
L 281.0 323.0
L 281.0 319.0
L 279.0 318.0
L 309.0 324.0
L 312.0 329.0
L 312.0 334.0
L 314.0 334.0
L 316.0 331.0
L 316.0 326.0
L 315.0 324.0
L 310.0 324.0
L 320.0 287.0
L 320.0 289.0
L 318.0 291.0
L 319.0 293.0
L 325.0 295.0
L 329.0 292.0
L 329.0 290.0
L 325.0 288.0
L 324.0 285.0
L 321.0 286.0
L 295.0 276.0
L 296.0 282.0
L 294.0 284.0
L 293.0 295.0
L 291.0 295.0
L 290.0 286.0
L 292.0 282.0
L 292.0 278.0
L 294.0 276.0
L 289.0 236.0
L 289.0 239.0
L 283.0 245.0
L 282.0 248.0
L 279.0 251.0
L 277.0 251.0
L 276.0 250.0
L 278.0 249.0
L 277.0 247.0
L 281.0 244.0
L 280.0 242.0
L 284.0 239.0
L 285.0 237.0
L 288.0 236.0
L 352.0 267.0
L 345.0 273.0
L 337.0 276.0
L 334.0 280.0
L 336.0 281.0
L 351.0 272.0
L 353.0 272.0
L 357.0 267.0
L 354.0 266.0
L 353.0 267.0
L 377.0 270.0
L 376.0 271.0
L 381.0 278.0
L 381.0 282.0
L 384.0 284.0
L 387.0 284.0
L 391.0 286.0
L 401.0 286.0
L 402.0 283.0
L 406.0 283.0
L 407.0 285.0
L 405.0 286.0
L 405.0 287.0
L 408.0 288.0
L 409.0 287.0
L 412.0 287.0
L 412.0 286.0
L 409.0 284.0
L 410.0 282.0
L 412.0 281.0
L 414.0 282.0
L 415.0 280.0
L 418.0 279.0
L 421.0 283.0
L 424.0 284.0
L 427.0 288.0
L 431.0 288.0
L 428.0 288.0
L 425.0 284.0
L 423.0 284.0
L 416.0 278.0
L 415.0 280.0
L 408.0 283.0
L 402.0 283.0
L 397.0 281.0
L 382.0 279.0
L 378.0 274.0
L 377.0 271.0
L 367.0 289.0
L 368.0 288.0
L 370.0 289.0
L 367.0 293.0
L 359.0 293.0
L 357.0 291.0
L 358.0 289.0
L 360.0 290.0
L 365.0 290.0
L 366.0 289.0
L 431.0 263.0
L 430.0 266.0
L 434.0 269.0
L 436.0 273.0
L 436.0 277.0
L 434.0 279.0
L 434.0 282.0
L 436.0 283.0
L 439.0 276.0
L 436.0 267.0
L 434.0 264.0
L 432.0 263.0
L 425.0 223.0
L 427.0 235.0
L 428.0 236.0
L 428.0 241.0
L 427.0 243.0
L 426.0 243.0
L 425.0 240.0
L 425.0 232.0
L 423.0 227.0
L 424.0 223.0
L 370.0 216.0
L 374.0 216.0
L 375.0 219.0
L 372.0 221.0
L 368.0 220.0
L 366.0 222.0
L 352.0 227.0
L 342.0 228.0
L 341.0 227.0
L 335.0 227.0
L 331.0 225.0
L 325.0 224.0
L 325.0 222.0
L 329.0 222.0
L 330.0 223.0
L 347.0 224.0
L 356.0 221.0
L 365.0 220.0
L 369.0 216.0
L 378.0 189.0
L 379.0 191.0
L 378.0 196.0
L 380.0 197.0
L 382.0 196.0
L 382.0 192.0
L 381.0 190.0
L 379.0 189.0
L 370.0 166.0
L 385.0 166.0
L 388.0 167.0
L 394.0 172.0
L 397.0 172.0
L 397.0 174.0
L 396.0 172.0
L 394.0 173.0
L 393.0 178.0
L 388.0 178.0
L 384.0 174.0
L 378.0 174.0
L 375.0 177.0
L 372.0 178.0
L 363.0 176.0
L 354.0 179.0
L 342.0 179.0
L 339.0 182.0
L 337.0 181.0
L 330.0 181.0
L 327.0 183.0
L 316.0 182.0
L 313.0 181.0
L 310.0 178.0
L 303.0 188.0
L 305.0 189.0
L 310.0 187.0
L 311.0 185.0
L 315.0 185.0
L 314.0 188.0
L 311.0 190.0
L 309.0 190.0
L 303.0 196.0
L 298.0 196.0
L 298.0 193.0
L 300.0 192.0
L 300.0 190.0
L 305.0 184.0
L 306.0 181.0
L 309.0 179.0
L 309.0 177.0
L 318.0 171.0
L 324.0 174.0
L 325.0 172.0
L 331.0 171.0
L 333.0 169.0
L 337.0 168.0
L 347.0 171.0
L 352.0 170.0
L 353.0 171.0
L 358.0 171.0
L 359.0 169.0
L 358.0 168.0
L 353.0 168.0
L 366.0 168.0
L 369.0 166.0
L 353.0 189.0
L 359.0 191.0
L 359.0 193.0
L 357.0 193.0
L 356.0 195.0
L 359.0 199.0
L 362.0 197.0
L 369.0 201.0
L 368.0 206.0
L 364.0 203.0
L 362.0 203.0
L 354.0 194.0
L 351.0 194.0
L 350.0 195.0
L 350.0 202.0
L 345.0 208.0
L 335.0 208.0
L 328.0 205.0
L 321.0 205.0
L 318.0 207.0
L 318.0 210.0
L 315.0 211.0
L 312.0 215.0
L 310.0 216.0
L 304.0 216.0
L 303.0 217.0
L 300.0 216.0
L 300.0 214.0
L 302.0 212.0
L 308.0 212.0
L 309.0 211.0
L 309.0 206.0
L 310.0 204.0
L 314.0 202.0
L 316.0 199.0
L 328.0 199.0
L 331.0 198.0
L 334.0 200.0
L 338.0 200.0
L 340.0 198.0
L 340.0 193.0
L 347.0 192.0
L 352.0 189.0
L 454.0 88.0
L 456.0 97.0
L 459.0 102.0
L 459.0 107.0
L 462.0 112.0
L 463.0 123.0
L 465.0 123.0
L 466.0 115.0
L 465.0 114.0
L 465.0 111.0
L 463.0 109.0
L 463.0 104.0
L 460.0 95.0
L 460.0 89.0
L 459.0 88.0
L 455.0 88.0
L 359.0 29.0
L 363.0 32.0
L 367.0 32.0
L 367.0 33.0
L 363.0 35.0
L 359.0 35.0
L 357.0 33.0
L 357.0 30.0
L 358.0 29.0
L 340.0 4.0
L 375.0 5.0
L 419.0 21.0
L 460.0 67.0
L 477.0 97.0
L 486.0 129.0
L 489.0 169.0
L 484.0 215.0
L 496.0 253.0
L 528.0 256.0
L 538.0 264.0
L 560.0 270.0
L 563.0 275.0
L 560.0 271.0
L 558.0 274.0
L 604.0 322.0
L 606.0 319.0
L 597.0 306.0
L 625.0 346.0
L 639.0 349.0
L 628.0 340.0
L 611.0 314.0
L 584.0 283.0
L 592.0 282.0
L 552.0 257.0
L 546.0 258.0
L 544.0 252.0
L 531.0 252.0
L 531.0 248.0
L 504.0 252.0
L 530.0 247.0
L 561.0 256.0
L 613.0 291.0
L 626.0 308.0
L 640.0 348.0
L 657.0 359.0
L 672.0 377.0
L 679.0 400.0
L 678.0 411.0
L 684.0 421.0
L 680.0 442.0
L 683.0 455.0
L 680.0 446.0
L 678.0 454.0
L 691.0 478.0
L 705.0 496.0
L 730.0 502.0
L 745.0 512.0
L 782.0 559.0
L 793.0 583.0
L 799.0 584.0
L 799.0 593.0
L 790.0 586.0
L 779.0 567.0
L 766.0 569.0
L 768.0 561.0
L 762.0 559.0
L 757.0 567.0
L 759.0 556.0
L 752.0 559.0
L 741.0 545.0
L 736.0 544.0
L 733.0 548.0
L 721.0 543.0
L 720.0 532.0
L 710.0 529.0
L 712.0 535.0
L 702.0 533.0
L 694.0 536.0
L 680.0 530.0
L 678.0 522.0
L 671.0 520.0
L 665.0 512.0
L 656.0 512.0
L 656.0 516.0
L 651.0 516.0
L 650.0 522.0
L 642.0 526.0
L 638.0 534.0
L 635.0 571.0
L 638.0 573.0
L 646.0 567.0
L 647.0 561.0
L 648.0 567.0
L 638.0 578.0
L 638.0 584.0
L 642.0 587.0
L 638.0 585.0
L 637.0 590.0
L 650.0 593.0
L 663.0 580.0
L 665.0 563.0
L 658.0 547.0
L 664.0 542.0
L 663.0 521.0
L 666.0 522.0
L 671.0 548.0
L 672.0 573.0
L 650.0 639.0
L 648.0 665.0
L 654.0 674.0
L 659.0 674.0
L 653.0 677.0
L 659.0 680.0
L 668.0 677.0
L 667.0 670.0
L 674.0 667.0
L 667.0 684.0
L 668.0 692.0
L 678.0 705.0
L 689.0 701.0
L 682.0 706.0
L 682.0 710.0
L 675.0 711.0
L 666.0 699.0
L 665.0 690.0
L 657.0 683.0
L 650.0 682.0
L 645.0 673.0
L 649.0 667.0
L 646.0 665.0
L 646.0 648.0
L 637.0 650.0
L 637.0 655.0
L 629.0 658.0
L 627.0 663.0
L 622.0 662.0
L 630.0 645.0
L 642.0 636.0
L 654.0 614.0
L 653.0 602.0
L 636.0 599.0
L 630.0 562.0
L 625.0 566.0
L 621.0 563.0
L 612.0 576.0
L 633.0 530.0
L 624.0 479.0
L 625.0 454.0
L 634.0 450.0
L 638.0 452.0
L 641.0 463.0
L 639.0 485.0
L 644.0 489.0
L 644.0 495.0
L 652.0 491.0
L 648.0 472.0
L 644.0 470.0
L 643.0 456.0
L 646.0 453.0
L 641.0 442.0
L 645.0 436.0
L 648.0 442.0
L 645.0 447.0
L 650.0 457.0
L 648.0 473.0
L 652.0 485.0
L 657.0 485.0
L 652.0 425.0
L 638.0 425.0
L 636.0 430.0
L 630.0 422.0
L 624.0 424.0
L 616.0 407.0
L 613.0 414.0
L 610.0 412.0
L 606.0 418.0
L 599.0 412.0
L 589.0 368.0
L 580.0 361.0
L 568.0 340.0
L 546.0 319.0
L 555.0 327.0
L 562.0 323.0
L 576.0 337.0
L 581.0 337.0
L 583.0 331.0
L 595.0 346.0
L 600.0 345.0
L 590.0 329.0
L 603.0 339.0
L 607.0 334.0
L 560.0 288.0
L 558.0 292.0
L 549.0 289.0
L 535.0 278.0
L 506.0 276.0
L 492.0 281.0
L 489.0 288.0
L 497.0 254.0
L 487.0 238.0
L 486.0 230.0
L 480.0 226.0
L 482.0 220.0
L 473.0 202.0
L 468.0 218.0
L 473.0 221.0
L 473.0 227.0
L 437.0 222.0
L 442.0 234.0
L 443.0 252.0
L 456.0 266.0
L 461.0 266.0
L 473.0 277.0
L 479.0 274.0
L 481.0 263.0
L 475.0 238.0
L 483.0 244.0
L 485.0 251.0
L 481.0 285.0
L 477.0 288.0
L 478.0 293.0
L 476.0 289.0
L 472.0 294.0
L 484.0 307.0
L 482.0 318.0
L 463.0 359.0
L 464.0 391.0
L 453.0 404.0
L 451.0 413.0
L 455.0 417.0
L 466.0 404.0
L 456.0 416.0
L 460.0 427.0
L 472.0 435.0
L 464.0 440.0
L 463.0 448.0
L 460.0 447.0
L 450.0 413.0
L 435.0 416.0
L 428.0 422.0
L 428.0 417.0
L 442.0 404.0
L 451.0 386.0
L 448.0 379.0
L 431.0 380.0
L 435.0 378.0
L 442.0 354.0
L 433.0 351.0
L 433.0 355.0
L 422.0 362.0
L 414.0 361.0
L 416.0 369.0
L 424.0 371.0
L 419.0 372.0
L 421.0 382.0
L 415.0 383.0
L 413.0 380.0
L 418.0 381.0
L 419.0 373.0
L 415.0 369.0
L 401.0 368.0
L 392.0 372.0
L 393.0 360.0
L 390.0 357.0
L 375.0 357.0
L 377.0 348.0
L 371.0 348.0
L 435.0 351.0
L 440.0 348.0
L 436.0 352.0
L 442.0 352.0
L 447.0 343.0
L 451.0 318.0
L 443.0 312.0
L 439.0 320.0
L 435.0 320.0
L 429.0 309.0
L 431.0 312.0
L 434.0 308.0
L 448.0 312.0
L 453.0 320.0
L 456.0 315.0
L 452.0 301.0
L 457.0 304.0
L 461.0 302.0
L 461.0 293.0
L 456.0 293.0
L 455.0 289.0
L 464.0 283.0
L 470.0 291.0
L 465.0 297.0
L 464.0 309.0
L 457.0 315.0
L 458.0 339.0
L 455.0 339.0
L 450.0 328.0
L 446.0 338.0
L 446.0 347.0
L 454.0 365.0
L 446.0 360.0
L 441.0 370.0
L 451.0 375.0
L 449.0 380.0
L 453.0 385.0
L 458.0 377.0
L 454.0 369.0
L 463.0 363.0
L 460.0 351.0
L 465.0 347.0
L 468.0 325.0
L 474.0 316.0
L 471.0 304.0
L 474.0 285.0
L 468.0 277.0
L 457.0 273.0
L 451.0 283.0
L 451.0 291.0
L 442.0 301.0
L 425.0 307.0
L 404.0 308.0
L 386.0 304.0
L 357.0 306.0
L 356.0 312.0
L 367.0 317.0
L 408.0 316.0
L 421.0 319.0
L 428.0 315.0
L 426.0 323.0
L 430.0 326.0
L 427.0 330.0
L 424.0 318.0
L 389.0 324.0
L 384.0 318.0
L 371.0 317.0
L 371.0 321.0
L 366.0 323.0
L 347.0 312.0
L 334.0 314.0
L 341.0 310.0
L 342.0 305.0
L 356.0 309.0
L 358.0 304.0
L 367.0 301.0
L 371.0 304.0
L 376.0 299.0
L 374.0 294.0
L 354.0 296.0
L 342.0 292.0
L 342.0 286.0
L 338.0 285.0
L 326.0 301.0
L 332.0 308.0
L 333.0 324.0
L 329.0 334.0
L 332.0 339.0
L 326.0 342.0
L 327.0 317.0
L 319.0 308.0
L 318.0 298.0
L 316.0 302.0
L 315.0 293.0
L 325.0 282.0
L 356.0 266.0
L 372.0 252.0
L 357.0 267.0
L 377.0 255.0
L 374.0 264.0
L 367.0 265.0
L 361.0 273.0
L 340.0 282.0
L 340.0 285.0
L 360.0 290.0
L 397.0 290.0
L 418.0 296.0
L 433.0 294.0
L 441.0 286.0
L 447.0 271.0
L 436.0 249.0
L 424.0 192.0
L 436.0 176.0
L 427.0 186.0
L 426.0 194.0
L 430.0 189.0
L 439.0 189.0
L 434.0 194.0
L 436.0 198.0
L 450.0 199.0
L 458.0 198.0
L 461.0 194.0
L 456.0 206.0
L 438.0 204.0
L 434.0 210.0
L 462.0 222.0
L 468.0 216.0
L 466.0 205.0
L 472.0 201.0
L 467.0 193.0
L 477.0 188.0
L 477.0 181.0
L 457.0 175.0
L 443.0 183.0
L 447.0 170.0
L 440.0 171.0
L 448.0 166.0
L 466.0 165.0
L 487.0 175.0
L 486.0 165.0
L 481.0 159.0
L 481.0 129.0
L 473.0 123.0
L 479.0 121.0
L 475.0 103.0
L 470.0 95.0
L 465.0 94.0
L 466.0 86.0
L 455.0 81.0
L 447.0 67.0
L 438.0 61.0
L 438.0 55.0
L 424.0 35.0
L 420.0 34.0
L 417.0 39.0
L 416.0 54.0
L 417.0 41.0
L 413.0 39.0
L 409.0 43.0
L 406.0 40.0
L 408.0 28.0
L 378.0 14.0
L 362.0 17.0
L 364.0 14.0
L 359.0 9.0
L 335.0 14.0
L 321.0 23.0
L 324.0 25.0
L 318.0 25.0
L 309.0 33.0
L 303.0 32.0
L 280.0 46.0
L 242.0 91.0
L 232.0 142.0
L 233.0 172.0
L 252.0 203.0
L 260.0 193.0
L 257.0 185.0
L 263.0 184.0
L 262.0 240.0
L 272.0 241.0
L 276.0 233.0
L 283.0 231.0
L 265.0 253.0
L 268.0 272.0
L 272.0 276.0
L 269.0 279.0
L 275.0 280.0
L 268.0 281.0
L 271.0 293.0
L 267.0 268.0
L 260.0 272.0
L 257.0 280.0
L 261.0 305.0
L 270.0 314.0
L 263.0 319.0
L 266.0 326.0
L 262.0 329.0
L 269.0 331.0
L 262.0 330.0
L 259.0 322.0
L 255.0 327.0
L 254.0 372.0
L 248.0 404.0
L 242.0 409.0
L 245.0 392.0
L 242.0 387.0
L 235.0 401.0
L 202.0 427.0
L 220.0 430.0
L 246.0 449.0
L 302.0 476.0
L 321.0 482.0
L 352.0 484.0
L 371.0 480.0
L 375.0 476.0
L 385.0 477.0
L 393.0 471.0
L 392.0 464.0
L 398.0 451.0
L 398.0 429.0
L 406.0 419.0
L 409.0 421.0
L 407.0 429.0
L 413.0 429.0
L 411.0 439.0
L 414.0 453.0
L 417.0 453.0
L 422.0 472.0
L 427.0 475.0
L 427.0 484.0
L 435.0 496.0
L 439.0 511.0
L 459.0 536.0
L 477.0 549.0
L 478.0 557.0
L 484.0 563.0
L 491.0 565.0
L 491.0 568.0
L 520.0 566.0
L 552.0 555.0
L 532.0 569.0
L 533.0 579.0
L 528.0 574.0
L 503.0 575.0
L 506.0 589.0
L 514.0 593.0
L 512.0 605.0
L 501.0 579.0
L 490.0 572.0
L 482.0 572.0
L 465.0 549.0
L 439.0 523.0
L 424.0 500.0
L 425.0 493.0
L 418.0 482.0
L 409.0 444.0
L 406.0 445.0
L 401.0 472.0
L 395.0 483.0
L 367.0 492.0
L 328.0 493.0
L 283.0 480.0
L 217.0 441.0
L 212.0 444.0
L 211.0 452.0
L 215.0 457.0
L 212.0 458.0
L 207.0 446.0
L 209.0 437.0
L 199.0 433.0
L 186.0 444.0
L 177.0 446.0
L 198.0 462.0
L 196.0 465.0
L 186.0 464.0
L 188.0 474.0
L 184.0 500.0
L 178.0 487.0
L 170.0 481.0
L 174.0 479.0
L 181.0 483.0
L 184.0 467.0
L 181.0 467.0
L 180.0 477.0
L 180.0 468.0
L 165.0 464.0
L 150.0 481.0
L 139.0 486.0
L 146.0 488.0
L 144.0 492.0
L 135.0 496.0
L 126.0 494.0
L 112.0 509.0
L 108.0 524.0
L 115.0 532.0
L 114.0 518.0
L 121.0 510.0
L 144.0 510.0
L 192.0 557.0
L 207.0 582.0
L 203.0 583.0
L 188.0 564.0
L 168.0 549.0
L 137.0 537.0
L 123.0 527.0
L 117.0 529.0
L 122.0 536.0
L 161.0 551.0
L 167.0 561.0
L 172.0 560.0
L 186.0 572.0
L 184.0 577.0
L 187.0 582.0
L 162.0 557.0
L 146.0 560.0
L 134.0 569.0
L 100.0 572.0
L 102.0 555.0
L 99.0 552.0
L 97.0 557.0
L 98.0 537.0
L 87.0 554.0
L 72.0 565.0
L 72.0 569.0
L 62.0 569.0
L 57.0 578.0
L 62.0 581.0
L 90.0 577.0
L 134.0 579.0
L 154.0 585.0
L 182.0 602.0
L 175.0 599.0
L 177.0 606.0
L 138.0 588.0
L 130.0 590.0
L 125.0 587.0
L 121.0 590.0
L 118.0 587.0
L 99.0 586.0
L 67.0 593.0
L 64.0 588.0
L 59.0 588.0
L 60.0 607.0
L 74.0 598.0
L 92.0 595.0
L 96.0 599.0
L 107.0 597.0
L 111.0 600.0
L 127.0 597.0
L 138.0 602.0
L 143.0 609.0
L 139.0 606.0
L 87.0 606.0
L 88.0 609.0
L 76.0 610.0
L 60.0 626.0
L 65.0 617.0
L 48.0 625.0
L 43.0 633.0
L 42.0 658.0
L 28.0 706.0
L 25.0 732.0
L 12.0 749.0
L 31.0 742.0
L 37.0 736.0
L 41.0 740.0
L 79.0 731.0
L 97.0 733.0
L 129.0 729.0
L 115.0 733.0
L 122.0 735.0
L 122.0 740.0
L 107.0 738.0
L 97.0 742.0
L 94.0 737.0
L 89.0 743.0
L 84.0 743.0
L 84.0 740.0
L 91.0 735.0
L 89.0 731.0
L 76.0 732.0
L 66.0 736.0
L 72.0 743.0
L 62.0 744.0
L 61.0 747.0
L 58.0 743.0
L 46.0 748.0
L 40.0 746.0
L 39.0 753.0
L 30.0 751.0
L 10.0 760.0
L 13.0 787.0
L 20.0 795.0
L 15.0 799.0
L 19.0 803.0
L 15.0 804.0
L 15.0 820.0
L 21.0 834.0
L 21.0 848.0
L 61.0 854.0
L 89.0 841.0
L 123.0 833.0
L 170.0 836.0
L 190.0 848.0
L 212.0 852.0
L 337.0 852.0
L 344.0 845.0
L 338.0 843.0
L 338.0 838.0
L 331.0 831.0
L 331.0 815.0
L 320.0 795.0
L 335.0 771.0
L 344.0 764.0
L 348.0 769.0
L 363.0 762.0
L 383.0 760.0
L 398.0 772.0
L 409.0 771.0
L 407.0 776.0
L 410.0 778.0
L 417.0 776.0
L 419.0 770.0
L 440.0 750.0
L 452.0 746.0
L 467.0 751.0
L 472.0 772.0
L 469.0 790.0
L 474.0 795.0
L 471.0 801.0
L 474.0 802.0
L 479.0 796.0
L 477.0 801.0
L 481.0 801.0
L 467.0 835.0
L 467.0 851.0
L 515.0 853.0
L 524.0 849.0
L 527.0 853.0
L 545.0 850.0
L 566.0 853.0
L 569.0 850.0
L 568.0 842.0
L 560.0 843.0
L 562.0 838.0
L 559.0 829.0
L 566.0 834.0
L 565.0 822.0
L 562.0 826.0
L 562.0 821.0
L 557.0 817.0
L 561.0 810.0
L 554.0 774.0
L 557.0 776.0
L 556.0 767.0
L 552.0 770.0
L 551.0 763.0
L 555.0 764.0
L 552.0 752.0
L 556.0 745.0
L 553.0 740.0
L 558.0 743.0
L 570.0 850.0
L 573.0 852.0
L 598.0 850.0
L 601.0 846.0
L 606.0 852.0
L 791.0 851.0
L 795.0 845.0
L 792.0 823.0
L 794.0 769.0
L 791.0 764.0
L 794.0 754.0
L 792.0 658.0
L 795.0 645.0
L 782.0 646.0
L 793.0 625.0
L 793.0 608.0
L 786.0 614.0
L 784.0 628.0
L 778.0 634.0
L 769.0 657.0
L 768.0 652.0
L 758.0 655.0
L 747.0 653.0
L 738.0 664.0
L 742.0 650.0
L 737.0 653.0
L 745.0 645.0
L 762.0 645.0
L 773.0 630.0
L 769.0 629.0
L 776.0 622.0
L 784.0 599.0
L 798.0 596.0
L 799.0 858.0
L 2.0 857.0
L 8.0 821.0
L 4.0 752.0
L 19.0 731.0
L 35.0 663.0
L 38.0 630.0
L 49.0 609.0
L 52.0 570.0
L 85.0 545.0
L 101.0 521.0
L 113.0 494.0
L 143.0 476.0
L 182.0 431.0
L 224.0 398.0
L 238.0 382.0
L 246.0 365.0
L 251.0 317.0
L 249.0 301.0
L 250.0 309.0
L 253.0 309.0
L 250.0 291.0
L 220.0 263.0
L 201.0 213.0
L 205.0 187.0
L 209.0 183.0
L 223.0 185.0
L 222.0 140.0
L 224.0 144.0
L 228.0 96.0
L 245.0 64.0
L 288.0 29.0
L 291.0 23.0
L 327.0 9.0
L 327.0 6.0
L 324.0 7.0
L 328.0 5.0
L 331.0 7.0
L 340.0 3.0
L 511.0 264.0
L 509.0 264.0
L 507.0 267.0
L 507.0 270.0
L 508.0 271.0
L 511.0 271.0
L 512.0 268.0
L 514.0 267.0
L 523.0 268.0
L 524.0 267.0
L 529.0 267.0
L 531.0 265.0
L 530.0 263.0
L 520.0 264.0
L 519.0 263.0
L 513.0 263.0
L 512.0 264.0
L 520.0 335.0
L 516.0 338.0
L 507.0 339.0
L 506.0 340.0
L 502.0 340.0
L 496.0 337.0
L 496.0 338.0
L 498.0 339.0
L 497.0 341.0
L 484.0 343.0
L 493.0 342.0
L 494.0 344.0
L 493.0 345.0
L 489.0 345.0
L 487.0 347.0
L 489.0 350.0
L 489.0 352.0
L 487.0 354.0
L 478.0 355.0
L 477.0 356.0
L 477.0 359.0
L 475.0 360.0
L 485.0 360.0
L 486.0 361.0
L 487.0 359.0
L 492.0 357.0
L 495.0 353.0
L 505.0 352.0
L 509.0 349.0
L 525.0 342.0
L 530.0 342.0
L 534.0 344.0
L 537.0 344.0
L 537.0 341.0
L 535.0 340.0
L 534.0 337.0
L 529.0 337.0
L 526.0 335.0
L 521.0 335.0
L 519.0 351.0
L 521.0 354.0
L 524.0 354.0
L 525.0 352.0
L 524.0 351.0
L 525.0 351.0
L 529.0 356.0
L 543.0 365.0
L 563.0 369.0
L 563.0 371.0
L 554.0 376.0
L 550.0 376.0
L 548.0 373.0
L 544.0 373.0
L 543.0 371.0
L 541.0 371.0
L 535.0 374.0
L 531.0 374.0
L 527.0 377.0
L 523.0 376.0
L 520.0 377.0
L 516.0 374.0
L 511.0 365.0
L 505.0 365.0
L 504.0 368.0
L 501.0 370.0
L 501.0 376.0
L 508.0 384.0
L 512.0 385.0
L 516.0 389.0
L 519.0 390.0
L 522.0 387.0
L 524.0 387.0
L 528.0 384.0
L 528.0 385.0
L 523.0 387.0
L 520.0 390.0
L 506.0 389.0
L 497.0 382.0
L 495.0 378.0
L 493.0 378.0
L 491.0 376.0
L 493.0 370.0
L 503.0 360.0
L 506.0 360.0
L 510.0 358.0
L 516.0 358.0
L 510.0 358.0
L 509.0 360.0
L 515.0 362.0
L 528.0 362.0
L 529.0 361.0
L 528.0 356.0
L 519.0 355.0
L 518.0 356.0
L 519.0 352.0
L 518.0 351.0
L 506.0 360.0
L 508.0 359.0
L 509.0 361.0
L 501.0 366.0
L 500.0 364.0
L 505.0 360.0
L 504.0 395.0
L 502.0 396.0
L 502.0 401.0
L 500.0 404.0
L 500.0 410.0
L 502.0 412.0
L 502.0 421.0
L 503.0 421.0
L 510.0 429.0
L 512.0 430.0
L 508.0 425.0
L 509.0 423.0
L 513.0 426.0
L 517.0 427.0
L 522.0 435.0
L 528.0 435.0
L 529.0 437.0
L 536.0 439.0
L 541.0 442.0
L 541.0 444.0
L 545.0 447.0
L 547.0 451.0
L 548.0 459.0
L 549.0 460.0
L 549.0 474.0
L 550.0 475.0
L 550.0 479.0
L 553.0 481.0
L 554.0 480.0
L 554.0 475.0
L 553.0 474.0
L 553.0 461.0
L 552.0 460.0
L 552.0 456.0
L 553.0 455.0
L 552.0 445.0
L 549.0 443.0
L 548.0 440.0
L 542.0 432.0
L 534.0 429.0
L 533.0 427.0
L 529.0 425.0
L 525.0 425.0
L 524.0 427.0
L 518.0 427.0
L 517.0 426.0
L 516.0 420.0
L 518.0 419.0
L 519.0 416.0
L 517.0 415.0
L 515.0 419.0
L 512.0 418.0
L 511.0 416.0
L 512.0 412.0
L 506.0 407.0
L 505.0 404.0
L 502.0 403.0
L 504.0 396.0
L 498.0 422.0
L 499.0 422.0
L 496.0 424.0
L 492.0 424.0
L 491.0 425.0
L 492.0 427.0
L 497.0 427.0
L 496.0 430.0
L 484.0 431.0
L 483.0 430.0
L 479.0 430.0
L 476.0 431.0
L 474.0 427.0
L 470.0 428.0
L 478.0 423.0
L 496.0 424.0
L 497.0 422.0
L 490.0 450.0
L 489.0 451.0
L 493.0 451.0
L 494.0 450.0
L 504.0 451.0
L 505.0 453.0
L 504.0 454.0
L 499.0 454.0
L 495.0 457.0
L 491.0 457.0
L 488.0 459.0
L 486.0 459.0
L 484.0 461.0
L 482.0 461.0
L 479.0 459.0
L 477.0 459.0
L 474.0 461.0
L 470.0 461.0
L 468.0 464.0
L 463.0 465.0
L 460.0 469.0
L 460.0 471.0
L 458.0 474.0
L 458.0 485.0
L 470.0 496.0
L 476.0 496.0
L 481.0 488.0
L 493.0 488.0
L 508.0 480.0
L 515.0 480.0
L 516.0 481.0
L 516.0 483.0
L 512.0 486.0
L 511.0 489.0
L 514.0 489.0
L 520.0 484.0
L 525.0 483.0
L 534.0 477.0
L 541.0 468.0
L 543.0 469.0
L 543.0 464.0
L 545.0 462.0
L 545.0 460.0
L 540.0 455.0
L 536.0 455.0
L 527.0 452.0
L 523.0 452.0
L 522.0 451.0
L 507.0 451.0
L 505.0 452.0
L 498.0 450.0
L 491.0 451.0
L 508.0 460.0
L 501.0 460.0
L 498.0 463.0
L 495.0 463.0
L 494.0 464.0
L 492.0 462.0
L 490.0 462.0
L 485.0 466.0
L 486.0 475.0
L 483.0 470.0
L 481.0 470.0
L 479.0 467.0
L 477.0 467.0
L 475.0 469.0
L 475.0 473.0
L 476.0 474.0
L 475.0 476.0
L 477.0 477.0
L 480.0 482.0
L 486.0 480.0
L 493.0 480.0
L 498.0 475.0
L 504.0 475.0
L 507.0 473.0
L 513.0 473.0
L 515.0 474.0
L 518.0 472.0
L 524.0 473.0
L 526.0 471.0
L 526.0 465.0
L 523.0 459.0
L 518.0 458.0
L 517.0 459.0
L 517.0 469.0
L 517.0 461.0
L 514.0 458.0
L 510.0 458.0
L 509.0 459.0
L 525.0 460.0
L 527.0 459.0
L 530.0 461.0
L 532.0 465.0
L 532.0 468.0
L 531.0 469.0
L 528.0 469.0
L 527.0 468.0
L 525.0 461.0
L 468.0 471.0
L 469.0 470.0
L 474.0 470.0
L 475.0 471.0
L 475.0 477.0
L 479.0 481.0
L 478.0 483.0
L 469.0 484.0
L 465.0 480.0
L 464.0 475.0
L 467.0 471.0
L 378.0 477.0
L 380.0 476.0
L 382.0 477.0
L 383.0 479.0
L 382.0 480.0
L 377.0 480.0
L 375.0 481.0
L 374.0 479.0
L 377.0 477.0
L 366.0 481.0
L 367.0 480.0
L 369.0 481.0
L 371.0 480.0
L 372.0 482.0
L 370.0 483.0
L 369.0 485.0
L 362.0 485.0
L 361.0 483.0
L 363.0 481.0
L 365.0 481.0
L 398.0 406.0
L 398.0 409.0
L 396.0 414.0
L 397.0 416.0
L 403.0 415.0
L 402.0 409.0
L 400.0 406.0
L 399.0 406.0
L 404.0 383.0
L 402.0 385.0
L 401.0 395.0
L 403.0 395.0
L 410.0 401.0
L 412.0 408.0
L 415.0 408.0
L 416.0 407.0
L 415.0 397.0
L 418.0 394.0
L 418.0 392.0
L 414.0 387.0
L 408.0 385.0
L 407.0 383.0
L 405.0 383.0
L 379.0 370.0
L 380.0 372.0
L 380.0 377.0
L 376.0 380.0
L 374.0 388.0
L 372.0 387.0
L 370.0 384.0
L 364.0 383.0
L 365.0 378.0
L 367.0 378.0
L 371.0 375.0
L 375.0 375.0
L 376.0 374.0
L 376.0 371.0
L 378.0 370.0
L 352.0 362.0
L 356.0 364.0
L 356.0 369.0
L 354.0 372.0
L 348.0 371.0
L 344.0 369.0
L 345.0 366.0
L 348.0 363.0
L 351.0 362.0
L 351.0 399.0
L 354.0 401.0
L 354.0 409.0
L 359.0 412.0
L 359.0 414.0
L 354.0 413.0
L 353.0 409.0
L 351.0 407.0
L 348.0 407.0
L 347.0 406.0
L 347.0 404.0
L 350.0 399.0
L 196.0 429.0
L 197.0 428.0
L 199.0 429.0
L 198.0 433.0
L 193.0 436.0
L 193.0 437.0
L 186.0 442.0
L 185.0 444.0
L 183.0 444.0
L 182.0 442.0
L 195.0 430.0
L 158.0 480.0
L 160.0 480.0
L 160.0 484.0
L 158.0 490.0
L 151.0 497.0
L 148.0 502.0
L 146.0 502.0
L 144.0 499.0
L 149.0 495.0
L 151.0 490.0
L 153.0 489.0
L 157.0 480.0
L 160.0 501.0
L 157.0 503.0
L 152.0 504.0
L 151.0 506.0
L 153.0 508.0
L 155.0 514.0
L 160.0 517.0
L 167.0 525.0
L 171.0 527.0
L 175.0 531.0
L 174.0 528.0
L 175.0 527.0
L 178.0 528.0
L 179.0 525.0
L 176.0 525.0
L 171.0 516.0
L 168.0 516.0
L 162.0 513.0
L 162.0 508.0
L 163.0 506.0
L 160.0 504.0
L 161.0 501.0
L 187.0 499.0
L 185.0 503.0
L 185.0 507.0
L 190.0 513.0
L 192.0 520.0
L 192.0 524.0
L 194.0 527.0
L 194.0 531.0
L 197.0 538.0
L 197.0 542.0
L 199.0 545.0
L 200.0 551.0
L 203.0 555.0
L 205.0 556.0
L 206.0 559.0
L 208.0 560.0
L 210.0 565.0
L 213.0 565.0
L 213.0 563.0
L 210.0 559.0
L 209.0 554.0
L 205.0 546.0
L 203.0 545.0
L 202.0 537.0
L 200.0 535.0
L 199.0 528.0
L 197.0 525.0
L 197.0 522.0
L 195.0 520.0
L 194.0 514.0
L 192.0 513.0
L 192.0 509.0
L 190.0 506.0
L 188.0 499.0
L 127.0 518.0
L 128.0 517.0
L 137.0 517.0
L 141.0 521.0
L 144.0 521.0
L 146.0 526.0
L 153.0 529.0
L 154.0 534.0
L 153.0 535.0
L 148.0 535.0
L 138.0 530.0
L 134.0 526.0
L 126.0 522.0
L 127.0 519.0
L 110.0 532.0
L 112.0 531.0
L 116.0 533.0
L 118.0 536.0
L 117.0 537.0
L 112.0 536.0
L 110.0 533.0
L 109.0 544.0
L 110.0 543.0
L 116.0 543.0
L 121.0 545.0
L 125.0 545.0
L 130.0 549.0
L 138.0 549.0
L 140.0 550.0
L 142.0 554.0
L 141.0 555.0
L 138.0 555.0
L 138.0 556.0
L 132.0 561.0
L 128.0 561.0
L 124.0 564.0
L 111.0 565.0
L 110.0 564.0
L 109.0 545.0
L 135.0 545.0
L 142.0 548.0
L 149.0 548.0
L 150.0 547.0
L 149.0 545.0
L 143.0 545.0
L 139.0 543.0
L 136.0 543.0
L 135.0 544.0
L 78.0 566.0
L 82.0 566.0
L 85.0 568.0
L 85.0 569.0
L 79.0 571.0
L 76.0 569.0
L 77.0 566.0
L 58.0 582.0
L 59.0 581.0
L 65.0 581.0
L 66.0 583.0
L 63.0 585.0
L 59.0 585.0
L 58.0 583.0
L 67.0 611.0
L 68.0 610.0
L 72.0 610.0
L 73.0 611.0
L 69.0 616.0
L 66.0 615.0
L 67.0 612.0
L 87.0 601.0
L 90.0 606.0
L 95.0 606.0
L 96.0 605.0
L 92.0 600.0
L 88.0 599.0
L 87.0 600.0
L 120.0 631.0
L 117.0 633.0
L 109.0 634.0
L 109.0 635.0
L 115.0 635.0
L 117.0 638.0
L 120.0 639.0
L 121.0 641.0
L 124.0 641.0
L 125.0 643.0
L 128.0 643.0
L 131.0 640.0
L 134.0 640.0
L 136.0 643.0
L 144.0 645.0
L 145.0 647.0
L 151.0 647.0
L 151.0 644.0
L 145.0 640.0
L 146.0 638.0
L 150.0 638.0
L 151.0 632.0
L 151.0 633.0
L 149.0 634.0
L 146.0 631.0
L 146.0 632.0
L 150.0 635.0
L 149.0 638.0
L 141.0 638.0
L 133.0 634.0
L 127.0 633.0
L 125.0 631.0
L 121.0 631.0
L 104.0 717.0
L 111.0 717.0
L 114.0 719.0
L 130.0 719.0
L 132.0 721.0
L 134.0 721.0
L 138.0 718.0
L 139.0 720.0
L 142.0 720.0
L 142.0 722.0
L 145.0 724.0
L 152.0 725.0
L 153.0 726.0
L 156.0 726.0
L 157.0 724.0
L 163.0 725.0
L 164.0 727.0
L 167.0 728.0
L 167.0 731.0
L 170.0 733.0
L 170.0 734.0
L 168.0 733.0
L 167.0 731.0
L 164.0 731.0
L 159.0 727.0
L 152.0 726.0
L 148.0 724.0
L 132.0 724.0
L 129.0 725.0
L 123.0 722.0
L 116.0 723.0
L 115.0 724.0
L 112.0 723.0
L 104.0 723.0
L 103.0 724.0
L 99.0 724.0
L 97.0 726.0
L 94.0 725.0
L 93.0 726.0
L 89.0 726.0
L 86.0 728.0
L 82.0 726.0
L 78.0 727.0
L 77.0 726.0
L 73.0 726.0
L 72.0 727.0
L 64.0 727.0
L 63.0 728.0
L 69.0 726.0
L 72.0 727.0
L 74.0 725.0
L 75.0 719.0
L 78.0 721.0
L 79.0 724.0
L 82.0 724.0
L 86.0 719.0
L 88.0 720.0
L 94.0 720.0
L 98.0 722.0
L 101.0 718.0
L 103.0 717.0
L 98.0 733.0
L 99.0 732.0
L 106.0 732.0
L 107.0 734.0
L 104.0 736.0
L 102.0 735.0
L 101.0 736.0
L 93.0 736.0
L 92.0 735.0
L 93.0 733.0
L 97.0 733.0
L 79.0 735.0
L 76.0 737.0
L 75.0 742.0
L 81.0 741.0
L 81.0 739.0
L 79.0 736.0
L 64.0 716.0
L 63.0 721.0
L 64.0 723.0
L 61.0 723.0
L 59.0 718.0
L 63.0 716.0
L 51.0 786.0
L 52.0 789.0
L 51.0 790.0
L 50.0 799.0
L 44.0 805.0
L 42.0 809.0
L 37.0 810.0
L 38.0 813.0
L 41.0 813.0
L 41.0 810.0
L 42.0 809.0
L 46.0 809.0
L 48.0 805.0
L 52.0 804.0
L 53.0 801.0
L 51.0 800.0
L 51.0 798.0
L 53.0 797.0
L 54.0 795.0
L 54.0 790.0
L 55.0 789.0
L 55.0 787.0
L 52.0 787.0
L 67.0 802.0
L 68.0 801.0
L 71.0 801.0
L 72.0 803.0
L 70.0 804.0
L 70.0 806.0
L 68.0 808.0
L 65.0 808.0
L 64.0 806.0
L 65.0 804.0
L 67.0 803.0
L 46.0 823.0
L 46.0 826.0
L 44.0 829.0
L 44.0 831.0
L 40.0 832.0
L 39.0 829.0
L 45.0 824.0
L 45.0 823.0
L 9.0 828.0
L 11.0 827.0
L 13.0 830.0
L 14.0 842.0
L 15.0 843.0
L 15.0 854.0
L 13.0 857.0
L 11.0 856.0
L 11.0 854.0
L 8.0 849.0
L 8.0 830.0
L 9.0 829.0
L 116.0 840.0
L 103.0 841.0
L 93.0 845.0
L 90.0 845.0
L 82.0 850.0
L 78.0 851.0
L 75.0 855.0
L 76.0 856.0
L 85.0 856.0
L 86.0 857.0
L 99.0 855.0
L 101.0 857.0
L 103.0 856.0
L 109.0 856.0
L 111.0 857.0
L 112.0 856.0
L 119.0 855.0
L 123.0 857.0
L 126.0 857.0
L 127.0 855.0
L 135.0 857.0
L 140.0 855.0
L 152.0 855.0
L 153.0 854.0
L 172.0 855.0
L 177.0 857.0
L 183.0 856.0
L 184.0 857.0
L 188.0 857.0
L 189.0 856.0
L 185.0 851.0
L 182.0 849.0
L 177.0 848.0
L 175.0 846.0
L 158.0 840.0
L 147.0 839.0
L 146.0 838.0
L 124.0 838.0
L 123.0 839.0
L 120.0 839.0
L 118.0 838.0
L 117.0 839.0
L 137.0 781.0
L 133.0 787.0
L 130.0 787.0
L 130.0 791.0
L 131.0 791.0
L 132.0 789.0
L 134.0 789.0
L 136.0 784.0
L 138.0 783.0
L 138.0 781.0
L 130.0 763.0
L 130.0 765.0
L 128.0 766.0
L 127.0 768.0
L 121.0 769.0
L 118.0 771.0
L 117.0 775.0
L 118.0 776.0
L 122.0 775.0
L 124.0 773.0
L 123.0 775.0
L 120.0 777.0
L 114.0 778.0
L 109.0 782.0
L 106.0 781.0
L 102.0 783.0
L 94.0 791.0
L 89.0 790.0
L 85.0 793.0
L 85.0 794.0
L 81.0 796.0
L 78.0 800.0
L 72.0 804.0
L 72.0 807.0
L 73.0 808.0
L 70.0 807.0
L 69.0 810.0
L 66.0 810.0
L 65.0 811.0
L 63.0 810.0
L 58.0 817.0
L 58.0 819.0
L 56.0 822.0
L 56.0 825.0
L 54.0 827.0
L 51.0 826.0
L 52.0 824.0
L 49.0 822.0
L 49.0 820.0
L 54.0 814.0
L 56.0 813.0
L 58.0 809.0
L 60.0 808.0
L 62.0 802.0
L 65.0 799.0
L 68.0 799.0
L 69.0 797.0
L 71.0 796.0
L 76.0 796.0
L 77.0 795.0
L 76.0 787.0
L 78.0 788.0
L 79.0 790.0
L 81.0 790.0
L 91.0 784.0
L 93.0 781.0
L 95.0 780.0
L 99.0 780.0
L 105.0 776.0
L 110.0 778.0
L 113.0 772.0
L 119.0 769.0
L 120.0 767.0
L 124.0 767.0
L 125.0 765.0
L 128.0 764.0
L 129.0 762.0
L 376.0 768.0
L 373.0 768.0
L 366.0 771.0
L 355.0 770.0
L 350.0 775.0
L 345.0 777.0
L 338.0 777.0
L 331.0 785.0
L 328.0 793.0
L 328.0 801.0
L 334.0 808.0
L 337.0 809.0
L 338.0 811.0
L 342.0 812.0
L 335.0 820.0
L 335.0 827.0
L 344.0 837.0
L 344.0 847.0
L 345.0 848.0
L 344.0 850.0
L 347.0 853.0
L 351.0 853.0
L 353.0 851.0
L 353.0 848.0
L 350.0 847.0
L 355.0 838.0
L 364.0 834.0
L 372.0 834.0
L 377.0 831.0
L 392.0 829.0
L 399.0 822.0
L 400.0 814.0
L 403.0 808.0
L 403.0 802.0
L 405.0 797.0
L 407.0 778.0
L 405.0 776.0
L 400.0 777.0
L 398.0 782.0
L 397.0 793.0
L 394.0 799.0
L 391.0 793.0
L 391.0 782.0
L 389.0 779.0
L 389.0 775.0
L 385.0 772.0
L 385.0 770.0
L 381.0 766.0
L 377.0 767.0
L 387.0 830.0
L 388.0 829.0
L 394.0 829.0
L 395.0 830.0
L 394.0 832.0
L 388.0 832.0
L 387.0 831.0
L 401.0 833.0
L 404.0 832.0
L 408.0 840.0
L 410.0 847.0
L 408.0 852.0
L 403.0 851.0
L 401.0 849.0
L 395.0 851.0
L 391.0 848.0
L 389.0 848.0
L 389.0 849.0
L 385.0 852.0
L 378.0 852.0
L 377.0 851.0
L 375.0 852.0
L 372.0 851.0
L 363.0 852.0
L 359.0 849.0
L 359.0 845.0
L 361.0 843.0
L 365.0 843.0
L 366.0 842.0
L 374.0 843.0
L 376.0 840.0
L 396.0 838.0
L 401.0 834.0
L 445.0 753.0
L 431.0 767.0
L 422.0 779.0
L 420.0 784.0
L 420.0 789.0
L 422.0 790.0
L 418.0 791.0
L 417.0 800.0
L 414.0 804.0
L 413.0 810.0
L 410.0 815.0
L 410.0 828.0
L 412.0 831.0
L 412.0 836.0
L 415.0 841.0
L 425.0 848.0
L 428.0 848.0
L 430.0 846.0
L 430.0 844.0
L 429.0 848.0
L 430.0 849.0
L 434.0 849.0
L 436.0 851.0
L 448.0 851.0
L 450.0 848.0
L 453.0 848.0
L 455.0 846.0
L 455.0 844.0
L 458.0 839.0
L 458.0 836.0
L 460.0 833.0
L 460.0 829.0
L 465.0 819.0
L 463.0 816.0
L 465.0 817.0
L 472.0 807.0
L 471.0 803.0
L 468.0 805.0
L 466.0 802.0
L 464.0 803.0
L 464.0 806.0
L 462.0 806.0
L 464.0 805.0
L 463.0 793.0
L 461.0 789.0
L 462.0 788.0
L 462.0 783.0
L 464.0 781.0
L 464.0 775.0
L 465.0 774.0
L 464.0 760.0
L 462.0 757.0
L 456.0 753.0
L 452.0 753.0
L 451.0 754.0
L 447.0 752.0
L 446.0 753.0
L 534.0 725.0
L 534.0 731.0
L 533.0 732.0
L 534.0 740.0
L 532.0 743.0
L 533.0 748.0
L 534.0 748.0
L 535.0 746.0
L 535.0 742.0
L 536.0 741.0
L 535.0 738.0
L 536.0 725.0
L 535.0 725.0
L 516.0 676.0
L 517.0 677.0
L 517.0 680.0
L 519.0 682.0
L 519.0 685.0
L 522.0 688.0
L 524.0 688.0
L 526.0 685.0
L 527.0 678.0
L 524.0 675.0
L 517.0 674.0
L 516.0 675.0
L 518.0 649.0
L 519.0 650.0
L 519.0 653.0
L 521.0 655.0
L 526.0 653.0
L 522.0 648.0
L 519.0 647.0
L 518.0 648.0
L 504.0 646.0
L 506.0 645.0
L 507.0 647.0
L 512.0 650.0
L 512.0 653.0
L 509.0 659.0
L 505.0 656.0
L 505.0 654.0
L 503.0 652.0
L 503.0 647.0
L 500.0 637.0
L 502.0 638.0
L 508.0 638.0
L 509.0 647.0
L 510.0 648.0
L 512.0 647.0
L 514.0 642.0
L 517.0 642.0
L 519.0 647.0
L 523.0 648.0
L 529.0 653.0
L 530.0 658.0
L 532.0 659.0
L 531.0 663.0
L 533.0 666.0
L 533.0 670.0
L 536.0 674.0
L 540.0 676.0
L 541.0 678.0
L 543.0 677.0
L 542.0 675.0
L 543.0 676.0
L 543.0 678.0
L 541.0 680.0
L 541.0 683.0
L 537.0 688.0
L 537.0 691.0
L 536.0 691.0
L 535.0 689.0
L 535.0 685.0
L 533.0 684.0
L 530.0 687.0
L 530.0 692.0
L 528.0 692.0
L 529.0 685.0
L 527.0 684.0
L 525.0 687.0
L 525.0 690.0
L 523.0 689.0
L 521.0 692.0
L 517.0 691.0
L 516.0 687.0
L 514.0 685.0
L 514.0 681.0
L 512.0 678.0
L 511.0 673.0
L 513.0 672.0
L 513.0 671.0
L 515.0 671.0
L 516.0 673.0
L 518.0 674.0
L 520.0 673.0
L 520.0 671.0
L 525.0 671.0
L 527.0 672.0
L 530.0 668.0
L 528.0 664.0
L 522.0 657.0
L 520.0 657.0
L 516.0 663.0
L 513.0 665.0
L 503.0 663.0
L 502.0 662.0
L 501.0 658.0
L 498.0 654.0
L 498.0 646.0
L 500.0 644.0
L 500.0 641.0
L 501.0 640.0
L 499.0 637.0
L 488.0 610.0
L 486.0 612.0
L 486.0 619.0
L 490.0 627.0
L 492.0 629.0
L 495.0 629.0
L 496.0 628.0
L 496.0 625.0
L 495.0 624.0
L 495.0 619.0
L 493.0 615.0
L 493.0 612.0
L 490.0 608.0
L 488.0 609.0
L 474.0 593.0
L 473.0 601.0
L 477.0 605.0
L 479.0 605.0
L 480.0 604.0
L 480.0 594.0
L 478.0 591.0
L 475.0 592.0
L 466.0 585.0
L 468.0 586.0
L 470.0 589.0
L 473.0 587.0
L 481.0 586.0
L 488.0 594.0
L 487.0 600.0
L 489.0 602.0
L 494.0 602.0
L 498.0 606.0
L 499.0 611.0
L 502.0 617.0
L 502.0 621.0
L 504.0 626.0
L 504.0 631.0
L 502.0 633.0
L 499.0 633.0
L 498.0 631.0
L 497.0 631.0
L 494.0 634.0
L 495.0 638.0
L 494.0 639.0
L 492.0 639.0
L 487.0 633.0
L 485.0 628.0
L 483.0 626.0
L 480.0 616.0
L 474.0 611.0
L 473.0 609.0
L 468.0 607.0
L 465.0 604.0
L 462.0 604.0
L 461.0 603.0
L 457.0 603.0
L 455.0 606.0
L 453.0 605.0
L 454.0 595.0
L 453.0 593.0
L 455.0 590.0
L 460.0 587.0
L 460.0 586.0
L 464.0 586.0
L 465.0 585.0
L 460.0 590.0
L 461.0 589.0
L 464.0 590.0
L 464.0 596.0
L 462.0 598.0
L 459.0 596.0
L 459.0 592.0
L 460.0 591.0
L 430.0 602.0
L 435.0 603.0
L 436.0 606.0
L 438.0 606.0
L 440.0 608.0
L 440.0 610.0
L 436.0 610.0
L 434.0 612.0
L 429.0 611.0
L 430.0 610.0
L 430.0 607.0
L 429.0 606.0
L 429.0 602.0
L 468.0 653.0
L 458.0 662.0
L 455.0 667.0
L 454.0 686.0
L 455.0 687.0
L 455.0 692.0
L 458.0 697.0
L 458.0 700.0
L 463.0 705.0
L 467.0 705.0
L 470.0 707.0
L 472.0 707.0
L 479.0 703.0
L 485.0 696.0
L 489.0 687.0
L 490.0 675.0
L 488.0 671.0
L 488.0 666.0
L 486.0 663.0
L 486.0 661.0
L 480.0 655.0
L 474.0 653.0
L 469.0 653.0
L 469.0 660.0
L 461.0 668.0
L 460.0 670.0
L 460.0 675.0
L 459.0 676.0
L 460.0 689.0
L 468.0 698.0
L 473.0 697.0
L 479.0 691.0
L 483.0 682.0
L 483.0 673.0
L 480.0 665.0
L 474.0 659.0
L 471.0 659.0
L 470.0 660.0
L 522.0 616.0
L 520.0 617.0
L 519.0 619.0
L 524.0 624.0
L 525.0 628.0
L 528.0 628.0
L 528.0 622.0
L 523.0 616.0
L 537.0 638.0
L 536.0 640.0
L 534.0 640.0
L 533.0 648.0
L 536.0 650.0
L 538.0 659.0
L 542.0 665.0
L 542.0 669.0
L 546.0 674.0
L 549.0 684.0
L 555.0 687.0
L 555.0 689.0
L 552.0 690.0
L 554.0 692.0
L 550.0 700.0
L 551.0 704.0
L 549.0 707.0
L 550.0 728.0
L 551.0 730.0
L 556.0 731.0
L 555.0 720.0
L 551.0 717.0
L 550.0 713.0
L 555.0 710.0
L 555.0 707.0
L 559.0 703.0
L 561.0 703.0
L 563.0 715.0
L 568.0 718.0
L 565.0 721.0
L 565.0 725.0
L 571.0 737.0
L 569.0 745.0
L 572.0 741.0
L 571.0 737.0
L 574.0 732.0
L 569.0 725.0
L 568.0 715.0
L 565.0 710.0
L 566.0 708.0
L 563.0 705.0
L 563.0 700.0
L 559.0 692.0
L 557.0 681.0
L 551.0 675.0
L 549.0 666.0
L 554.0 666.0
L 547.0 662.0
L 542.0 652.0
L 541.0 643.0
L 543.0 642.0
L 558.0 655.0
L 560.0 655.0
L 563.0 659.0
L 563.0 662.0
L 567.0 659.0
L 567.0 651.0
L 564.0 650.0
L 564.0 646.0
L 562.0 648.0
L 559.0 648.0
L 557.0 645.0
L 553.0 644.0
L 553.0 646.0
L 551.0 647.0
L 543.0 642.0
L 540.0 642.0
L 538.0 639.0
L 584.0 656.0
L 582.0 657.0
L 582.0 659.0
L 585.0 665.0
L 585.0 667.0
L 587.0 668.0
L 589.0 671.0
L 588.0 673.0
L 589.0 681.0
L 592.0 682.0
L 592.0 678.0
L 589.0 671.0
L 590.0 664.0
L 588.0 661.0
L 588.0 657.0
L 585.0 656.0
L 614.0 665.0
L 614.0 673.0
L 618.0 675.0
L 621.0 680.0
L 624.0 680.0
L 625.0 683.0
L 621.0 686.0
L 621.0 693.0
L 620.0 696.0
L 617.0 698.0
L 616.0 701.0
L 615.0 701.0
L 612.0 697.0
L 613.0 695.0
L 613.0 689.0
L 612.0 687.0
L 610.0 686.0
L 609.0 691.0
L 606.0 692.0
L 606.0 696.0
L 604.0 697.0
L 604.0 698.0
L 608.0 701.0
L 608.0 705.0
L 606.0 706.0
L 604.0 703.0
L 602.0 703.0
L 600.0 711.0
L 602.0 711.0
L 605.0 713.0
L 604.0 712.0
L 605.0 709.0
L 607.0 707.0
L 609.0 707.0
L 610.0 704.0
L 613.0 703.0
L 612.0 702.0
L 613.0 700.0
L 619.0 702.0
L 620.0 701.0
L 623.0 701.0
L 624.0 699.0
L 627.0 697.0
L 625.0 696.0
L 625.0 694.0
L 628.0 689.0
L 628.0 684.0
L 627.0 684.0
L 626.0 682.0
L 628.0 680.0
L 632.0 679.0
L 630.0 676.0
L 630.0 674.0
L 625.0 672.0
L 625.0 670.0
L 628.0 669.0
L 625.0 669.0
L 625.0 671.0
L 622.0 672.0
L 619.0 671.0
L 617.0 669.0
L 617.0 667.0
L 615.0 666.0
L 591.0 702.0
L 592.0 711.0
L 596.0 711.0
L 595.0 705.0
L 591.0 703.0
L 570.0 685.0
L 573.0 684.0
L 574.0 687.0
L 573.0 693.0
L 575.0 694.0
L 575.0 697.0
L 574.0 698.0
L 571.0 696.0
L 572.0 692.0
L 570.0 691.0
L 571.0 689.0
L 569.0 686.0
L 569.0 684.0
L 633.0 713.0
L 634.0 712.0
L 637.0 712.0
L 639.0 714.0
L 639.0 719.0
L 638.0 720.0
L 635.0 719.0
L 633.0 716.0
L 633.0 714.0
L 651.0 701.0
L 649.0 703.0
L 650.0 708.0
L 647.0 712.0
L 645.0 712.0
L 642.0 707.0
L 641.0 709.0
L 639.0 709.0
L 634.0 705.0
L 634.0 703.0
L 630.0 706.0
L 628.0 705.0
L 629.0 708.0
L 625.0 712.0
L 621.0 712.0
L 621.0 715.0
L 623.0 717.0
L 629.0 717.0
L 634.0 727.0
L 630.0 729.0
L 626.0 729.0
L 625.0 728.0
L 627.0 725.0
L 626.0 725.0
L 621.0 730.0
L 619.0 730.0
L 619.0 733.0
L 616.0 735.0
L 615.0 737.0
L 616.0 744.0
L 618.0 746.0
L 618.0 750.0
L 616.0 752.0
L 617.0 752.0
L 619.0 749.0
L 621.0 750.0
L 622.0 748.0
L 628.0 747.0
L 631.0 744.0
L 634.0 745.0
L 635.0 744.0
L 635.0 742.0
L 633.0 741.0
L 635.0 737.0
L 635.0 735.0
L 633.0 732.0
L 634.0 727.0
L 637.0 726.0
L 639.0 729.0
L 637.0 732.0
L 638.0 732.0
L 639.0 734.0
L 641.0 733.0
L 640.0 732.0
L 640.0 728.0
L 641.0 726.0
L 644.0 724.0
L 643.0 722.0
L 645.0 718.0
L 649.0 714.0
L 648.0 711.0
L 657.0 703.0
L 660.0 703.0
L 661.0 701.0
L 658.0 701.0
L 657.0 702.0
L 653.0 702.0
L 652.0 701.0
L 674.0 714.0
L 674.0 715.0
L 672.0 716.0
L 674.0 722.0
L 673.0 723.0
L 668.0 723.0
L 665.0 726.0
L 666.0 728.0
L 669.0 728.0
L 671.0 726.0
L 674.0 726.0
L 675.0 723.0
L 678.0 721.0
L 679.0 719.0
L 682.0 719.0
L 682.0 718.0
L 678.0 717.0
L 677.0 714.0
L 675.0 714.0
L 664.0 731.0
L 667.0 731.0
L 667.0 737.0
L 664.0 738.0
L 663.0 735.0
L 661.0 735.0
L 660.0 737.0
L 657.0 737.0
L 658.0 733.0
L 659.0 735.0
L 661.0 735.0
L 663.0 733.0
L 663.0 731.0
L 648.0 748.0
L 650.0 748.0
L 649.0 752.0
L 646.0 752.0
L 645.0 754.0
L 645.0 750.0
L 647.0 749.0
L 647.0 748.0
L 640.0 755.0
L 641.0 756.0
L 641.0 759.0
L 640.0 760.0
L 640.0 763.0
L 636.0 765.0
L 635.0 763.0
L 636.0 762.0
L 636.0 758.0
L 635.0 757.0
L 637.0 758.0
L 639.0 755.0
L 606.0 778.0
L 608.0 777.0
L 608.0 780.0
L 606.0 783.0
L 606.0 785.0
L 605.0 785.0
L 603.0 781.0
L 601.0 780.0
L 604.0 780.0
L 605.0 777.0
L 556.0 783.0
L 557.0 782.0
L 559.0 783.0
L 560.0 786.0
L 560.0 790.0
L 559.0 791.0
L 557.0 790.0
L 556.0 784.0
L 560.0 808.0
L 562.0 807.0
L 564.0 810.0
L 564.0 816.0
L 563.0 817.0
L 561.0 816.0
L 561.0 810.0
L 560.0 809.0
L 594.0 835.0
L 592.0 839.0
L 592.0 843.0
L 596.0 845.0
L 601.0 839.0
L 599.0 836.0
L 596.0 836.0
L 595.0 835.0
L 697.0 699.0
L 693.0 708.0
L 694.0 710.0
L 698.0 707.0
L 702.0 707.0
L 703.0 708.0
L 702.0 711.0
L 703.0 711.0
L 704.0 709.0
L 708.0 710.0
L 711.0 708.0
L 710.0 706.0
L 704.0 704.0
L 698.0 699.0
L 733.0 680.0
L 733.0 682.0
L 731.0 685.0
L 729.0 686.0
L 728.0 693.0
L 725.0 695.0
L 724.0 697.0
L 724.0 703.0
L 726.0 702.0
L 729.0 696.0
L 729.0 694.0
L 732.0 690.0
L 735.0 692.0
L 737.0 692.0
L 737.0 688.0
L 735.0 687.0
L 734.0 680.0
L 713.0 649.0
L 713.0 654.0
L 708.0 660.0
L 706.0 660.0
L 709.0 656.0
L 710.0 651.0
L 712.0 650.0
L 712.0 649.0
L 722.0 630.0
L 721.0 632.0
L 719.0 633.0
L 717.0 643.0
L 719.0 643.0
L 721.0 639.0
L 721.0 635.0
L 723.0 632.0
L 723.0 630.0
L 742.0 632.0
L 742.0 634.0
L 740.0 637.0
L 740.0 641.0
L 742.0 641.0
L 743.0 639.0
L 743.0 632.0
L 765.0 578.0
L 769.0 580.0
L 771.0 580.0
L 773.0 578.0
L 778.0 582.0
L 785.0 586.0
L 785.0 590.0
L 784.0 591.0
L 781.0 591.0
L 779.0 588.0
L 778.0 588.0
L 777.0 584.0
L 774.0 581.0
L 772.0 581.0
L 769.0 586.0
L 766.0 587.0
L 765.0 586.0
L 766.0 583.0
L 765.0 582.0
L 765.0 577.0
L 760.0 575.0
L 761.0 575.0
L 761.0 582.0
L 759.0 583.0
L 759.0 587.0
L 758.0 588.0
L 758.0 599.0
L 754.0 605.0
L 754.0 608.0
L 750.0 613.0
L 749.0 613.0
L 747.0 604.0
L 750.0 600.0
L 750.0 590.0
L 752.0 584.0
L 754.0 583.0
L 753.0 578.0
L 754.0 576.0
L 758.0 576.0
L 759.0 575.0
L 747.0 572.0
L 740.0 584.0
L 738.0 593.0
L 736.0 594.0
L 734.0 602.0
L 730.0 609.0
L 730.0 615.0
L 728.0 618.0
L 727.0 623.0
L 723.0 623.0
L 723.0 620.0
L 726.0 616.0
L 726.0 614.0
L 724.0 613.0
L 722.0 616.0
L 719.0 616.0
L 721.0 616.0
L 725.0 612.0
L 726.0 603.0
L 728.0 601.0
L 728.0 598.0
L 731.0 594.0
L 731.0 591.0
L 736.0 584.0
L 738.0 575.0
L 739.0 574.0
L 742.0 575.0
L 746.0 572.0
L 714.0 548.0
L 713.0 552.0
L 714.0 553.0
L 718.0 551.0
L 717.0 558.0
L 711.0 565.0
L 711.0 569.0
L 709.0 575.0
L 706.0 580.0
L 706.0 584.0
L 703.0 588.0
L 703.0 590.0
L 700.0 595.0
L 696.0 610.0
L 693.0 612.0
L 693.0 617.0
L 686.0 619.0
L 686.0 615.0
L 689.0 610.0
L 687.0 609.0
L 685.0 612.0
L 683.0 611.0
L 684.0 609.0
L 686.0 609.0
L 688.0 607.0
L 691.0 599.0
L 693.0 597.0
L 695.0 590.0
L 697.0 587.0
L 698.0 581.0
L 700.0 579.0
L 700.0 576.0
L 704.0 569.0
L 706.0 560.0
L 713.0 551.0
L 714.0 547.0
L 704.0 515.0
L 710.0 520.0
L 709.0 522.0
L 705.0 523.0
L 701.0 520.0
L 703.0 515.0
L 691.0 494.0
L 694.0 493.0
L 696.0 495.0
L 695.0 497.0
L 696.0 500.0
L 701.0 500.0
L 703.0 503.0
L 708.0 503.0
L 711.0 506.0
L 716.0 507.0
L 721.0 512.0
L 724.0 512.0
L 726.0 508.0
L 729.0 508.0
L 731.0 510.0
L 731.0 516.0
L 734.0 521.0
L 735.0 531.0
L 737.0 534.0
L 739.0 534.0
L 740.0 532.0
L 737.0 527.0
L 740.0 522.0
L 740.0 518.0
L 741.0 517.0
L 744.0 518.0
L 746.0 520.0
L 746.0 526.0
L 755.0 532.0
L 752.0 536.0
L 754.0 542.0
L 756.0 544.0
L 761.0 542.0
L 762.0 544.0
L 760.0 546.0
L 760.0 548.0
L 764.0 547.0
L 768.0 553.0
L 772.0 555.0
L 771.0 559.0
L 768.0 561.0
L 762.0 558.0
L 757.0 554.0
L 755.0 550.0
L 750.0 549.0
L 748.0 545.0
L 742.0 540.0
L 733.0 538.0
L 723.0 532.0
L 714.0 531.0
L 712.0 528.0
L 711.0 529.0
L 709.0 529.0
L 707.0 527.0
L 698.0 528.0
L 695.0 526.0
L 690.0 526.0
L 684.0 521.0
L 683.0 516.0
L 680.0 514.0
L 677.0 514.0
L 672.0 509.0
L 672.0 507.0
L 674.0 505.0
L 679.0 505.0
L 679.0 502.0
L 681.0 500.0
L 684.0 500.0
L 686.0 503.0
L 693.0 503.0
L 694.0 502.0
L 686.0 497.0
L 687.0 494.0
L 690.0 494.0
L 682.0 486.0
L 681.0 487.0
L 681.0 491.0
L 682.0 492.0
L 682.0 498.0
L 684.0 499.0
L 686.0 494.0
L 686.0 487.0
L 684.0 484.0
L 682.0 485.0
L 676.0 492.0
L 678.0 491.0
L 680.0 495.0
L 680.0 501.0
L 678.0 505.0
L 676.0 504.0
L 676.0 493.0
L 662.0 497.0
L 664.0 496.0
L 665.0 497.0
L 665.0 500.0
L 662.0 503.0
L 659.0 503.0
L 658.0 501.0
L 662.0 498.0
L 664.0 502.0
L 666.0 501.0
L 672.0 507.0
L 672.0 509.0
L 670.0 510.0
L 669.0 508.0
L 669.0 510.0
L 672.0 510.0
L 674.0 512.0
L 673.0 514.0
L 666.0 512.0
L 666.0 509.0
L 663.0 503.0
L 657.0 494.0
L 655.0 496.0
L 654.0 502.0
L 650.0 500.0
L 650.0 494.0
L 649.0 493.0
L 643.0 497.0
L 643.0 503.0
L 646.0 506.0
L 649.0 507.0
L 652.0 514.0
L 655.0 512.0
L 656.0 505.0
L 659.0 504.0
L 657.0 501.0
L 659.0 499.0
L 660.0 493.0
L 658.0 492.0
L 657.0 493.0
L 656.0 464.0
L 656.0 472.0
L 658.0 473.0
L 660.0 471.0
L 659.0 469.0
L 659.0 463.0
L 657.0 462.0
L 656.0 463.0
L 656.0 416.0
L 661.0 424.0
L 663.0 423.0
L 663.0 422.0
L 666.0 424.0
L 668.0 423.0
L 667.0 421.0
L 659.0 414.0
L 657.0 415.0
L 669.0 411.0
L 667.0 414.0
L 671.0 419.0
L 673.0 419.0
L 674.0 416.0
L 672.0 415.0
L 672.0 410.0
L 670.0 409.0
L 669.0 410.0
L 615.0 434.0
L 617.0 434.0
L 619.0 437.0
L 618.0 447.0
L 620.0 449.0
L 622.0 449.0
L 622.0 450.0
L 615.0 452.0
L 617.0 470.0
L 614.0 474.0
L 615.0 475.0
L 618.0 475.0
L 617.0 489.0
L 615.0 493.0
L 615.0 499.0
L 611.0 502.0
L 610.0 506.0
L 608.0 507.0
L 608.0 504.0
L 610.0 501.0
L 610.0 498.0
L 609.0 497.0
L 607.0 498.0
L 607.0 501.0
L 605.0 504.0
L 605.0 502.0
L 607.0 499.0
L 608.0 493.0
L 613.0 481.0
L 613.0 475.0
L 616.0 470.0
L 617.0 465.0
L 615.0 461.0
L 615.0 455.0
L 613.0 454.0
L 610.0 460.0
L 610.0 465.0
L 608.0 468.0
L 608.0 472.0
L 608.0 469.0
L 606.0 466.0
L 606.0 456.0
L 608.0 452.0
L 611.0 453.0
L 613.0 451.0
L 611.0 442.0
L 608.0 438.0
L 610.0 439.0
L 611.0 438.0
L 611.0 442.0
L 613.0 443.0
L 614.0 442.0
L 614.0 434.0
L 602.0 474.0
L 605.0 476.0
L 604.0 488.0
L 603.0 488.0
L 602.0 486.0
L 601.0 474.0
L 577.0 533.0
L 578.0 533.0
L 577.0 537.0
L 575.0 537.0
L 574.0 539.0
L 568.0 541.0
L 566.0 543.0
L 564.0 543.0
L 565.0 541.0
L 568.0 539.0
L 569.0 536.0
L 576.0 533.0
L 499.0 568.0
L 500.0 567.0
L 506.0 567.0
L 507.0 568.0
L 506.0 570.0
L 500.0 570.0
L 499.0 569.0
L 359.0 657.0
L 359.0 664.0
L 356.0 669.0
L 356.0 693.0
L 346.0 708.0
L 345.0 713.0
L 343.0 714.0
L 342.0 724.0
L 337.0 735.0
L 333.0 734.0
L 332.0 718.0
L 339.0 705.0
L 339.0 692.0
L 341.0 689.0
L 340.0 685.0
L 352.0 670.0
L 342.0 672.0
L 338.0 676.0
L 336.0 676.0
L 334.0 680.0
L 335.0 690.0
L 333.0 691.0
L 333.0 696.0
L 335.0 697.0
L 335.0 700.0
L 332.0 707.0
L 329.0 709.0
L 329.0 714.0
L 327.0 716.0
L 328.0 725.0
L 327.0 735.0
L 329.0 737.0
L 333.0 736.0
L 334.0 739.0
L 337.0 738.0
L 341.0 728.0
L 343.0 729.0
L 343.0 733.0
L 347.0 733.0
L 351.0 728.0
L 350.0 719.0
L 353.0 716.0
L 352.0 712.0
L 358.0 702.0
L 363.0 697.0
L 363.0 686.0
L 365.0 679.0
L 363.0 670.0
L 365.0 665.0
L 364.0 661.0
L 361.0 663.0
L 359.0 662.0
L 360.0 660.0
L 359.0 658.0
L 684.0 625.0
L 684.0 627.0
L 682.0 629.0
L 682.0 631.0
L 678.0 638.0
L 678.0 646.0
L 677.0 647.0
L 677.0 653.0
L 676.0 654.0
L 677.0 657.0
L 678.0 657.0
L 678.0 655.0
L 680.0 654.0
L 680.0 651.0
L 684.0 643.0
L 685.0 632.0
L 687.0 628.0
L 687.0 626.0
L 685.0 625.0
L 592.0 388.0
L 596.0 400.0
L 597.0 408.0
L 599.0 409.0
L 600.0 408.0
L 600.0 403.0
L 597.0 396.0
L 598.0 393.0
L 596.0 391.0
L 594.0 386.0
L 592.0 387.0
L 591.0 380.0
L 592.0 381.0
L 592.0 385.0
L 594.0 386.0
L 595.0 385.0
L 595.0 380.0
L 593.0 378.0
L 591.0 379.0
L 604.0 379.0
L 607.0 378.0
L 609.0 380.0
L 611.0 387.0
L 610.0 389.0
L 611.0 392.0
L 613.0 393.0
L 617.0 401.0
L 628.0 412.0
L 636.0 417.0
L 635.0 419.0
L 632.0 420.0
L 622.0 412.0
L 614.0 403.0
L 604.0 387.0
L 604.0 380.0
L 624.0 361.0
L 639.0 377.0
L 651.0 383.0
L 656.0 388.0
L 662.0 391.0
L 658.0 390.0
L 653.0 385.0
L 650.0 385.0
L 649.0 383.0
L 647.0 384.0
L 647.0 386.0
L 654.0 392.0
L 657.0 396.0
L 661.0 398.0
L 666.0 411.0
L 668.0 411.0
L 669.0 409.0
L 667.0 404.0
L 667.0 399.0
L 664.0 397.0
L 666.0 398.0
L 668.0 396.0
L 673.0 400.0
L 677.0 401.0
L 678.0 400.0
L 678.0 396.0
L 677.0 395.0
L 674.0 395.0
L 664.0 383.0
L 658.0 383.0
L 648.0 375.0
L 644.0 373.0
L 640.0 368.0
L 634.0 367.0
L 628.0 362.0
L 626.0 359.0
L 624.0 360.0
L 624.0 347.0
L 623.0 348.0
L 623.0 351.0
L 624.0 353.0
L 629.0 358.0
L 628.0 360.0
L 629.0 361.0
L 631.0 360.0
L 632.0 364.0
L 635.0 367.0
L 639.0 367.0
L 640.0 364.0
L 642.0 364.0
L 653.0 368.0
L 655.0 370.0
L 655.0 373.0
L 660.0 377.0
L 663.0 381.0
L 666.0 380.0
L 665.0 375.0
L 658.0 367.0
L 650.0 361.0
L 647.0 361.0
L 646.0 359.0
L 637.0 359.0
L 638.0 358.0
L 638.0 355.0
L 634.0 352.0
L 635.0 349.0
L 634.0 348.0
L 632.0 348.0
L 629.0 346.0
L 626.0 346.0
L 625.0 347.0
L 609.0 337.0
L 613.0 337.0
L 619.0 345.0
L 617.0 347.0
L 619.0 355.0
L 627.0 371.0
L 636.0 381.0
L 646.0 387.0
L 646.0 393.0
L 653.0 399.0
L 654.0 402.0
L 650.0 406.0
L 658.0 413.0
L 655.0 415.0
L 661.0 428.0
L 667.0 429.0
L 665.0 425.0
L 671.0 424.0
L 675.0 439.0
L 666.0 439.0
L 680.0 473.0
L 680.0 478.0
L 673.0 483.0
L 667.0 483.0
L 664.0 478.0
L 668.0 466.0
L 663.0 471.0
L 660.0 470.0
L 662.0 454.0
L 657.0 441.0
L 652.0 438.0
L 659.0 433.0
L 657.0 427.0
L 655.0 430.0
L 640.0 411.0
L 611.0 383.0
L 615.0 382.0
L 606.0 377.0
L 587.0 354.0
L 590.0 352.0
L 596.0 357.0
L 588.0 344.0
L 590.0 342.0
L 609.0 370.0
L 632.0 391.0
L 630.0 393.0
L 650.0 418.0
L 649.0 409.0
L 642.0 400.0
L 640.0 392.0
L 629.0 382.0
L 624.0 370.0
L 613.0 357.0
L 605.0 341.0
L 608.0 337.0
L 592.0 285.0
L 610.0 302.0
L 621.0 317.0
L 622.0 323.0
L 626.0 328.0
L 627.0 328.0
L 628.0 326.0
L 624.0 319.0
L 623.0 313.0
L 619.0 306.0
L 599.0 288.0
L 599.0 286.0
L 597.0 284.0
L 593.0 283.0
L 592.0 284.0" fill="none" stroke="black" stroke-width="1" stroke-linecap="round" stroke-linejoin="round"/>
</svg>
